<?xml version="1.0" encoding="utf-8" standalone="no"?>
<!DOCTYPE svg PUBLIC "-//W3C//DTD SVG 1.1//EN"
  "http://www.w3.org/Graphics/SVG/1.1/DTD/svg11.dtd">
<svg xmlns:xlink="http://www.w3.org/1999/xlink" width="792.192233pt" height="503.394375pt" viewBox="0 0 792.192233 503.394375" xmlns="http://www.w3.org/2000/svg" version="1.1">
 <metadata>
  <rdf:RDF xmlns:dc="http://purl.org/dc/elements/1.1/" xmlns:cc="http://creativecommons.org/ns#" xmlns:rdf="http://www.w3.org/1999/02/22-rdf-syntax-ns#">
   <cc:Work>
    <dc:type rdf:resource="http://purl.org/dc/dcmitype/StillImage"/>
    <dc:date>2024-07-22T09:46:36.768283</dc:date>
    <dc:format>image/svg+xml</dc:format>
    <dc:creator>
     <cc:Agent>
      <dc:title>Matplotlib v3.9.1, https://matplotlib.org/</dc:title>
     </cc:Agent>
    </dc:creator>
   </cc:Work>
  </rdf:RDF>
 </metadata>
 <defs>
  <style type="text/css">*{stroke-linejoin: round; stroke-linecap: butt}</style>
 </defs>
 <g id="figure_1">
  <g id="patch_1">
   <path d="M 0 503.394375 
L 792.192233 503.394375 
L 792.192233 0 
L 0 0 
z
" style="fill: #ffffff"/>
  </g>
  <g id="axes_1">
   <g id="patch_2">
    <path d="M 111.093636 465.838125 
L 780.693636 465.838125 
L 780.693636 22.318125 
L 111.093636 22.318125 
z
" style="fill: #ffffff"/>
   </g>
   <g id="PathCollection_1">
    <defs>
     <path id="md42a833c95" d="M 0 3 
C 0.795609 3 1.55874 2.683901 2.12132 2.12132 
C 2.683901 1.55874 3 0.795609 3 0 
C 3 -0.795609 2.683901 -1.55874 2.12132 -2.12132 
C 1.55874 -2.683901 0.795609 -3 0 -3 
C -0.795609 -3 -1.55874 -2.683901 -2.12132 -2.12132 
C -2.683901 -1.55874 -3 -0.795609 -3 0 
C -3 0.795609 -2.683901 1.55874 -2.12132 2.12132 
C -1.55874 2.683901 -0.795609 3 0 3 
z
" style="stroke: #ff0000; stroke-opacity: 0.7"/>
    </defs>
    <g clip-path="url(#p074a335015)">
     <use xlink:href="#md42a833c95" x="275.760151" y="222.898951" style="fill: #ff0000; fill-opacity: 0.7; stroke: #ff0000; stroke-opacity: 0.7"/>
    </g>
   </g>
   <g id="PathCollection_2">
    <g clip-path="url(#p074a335015)">
     <use xlink:href="#md42a833c95" x="141.53" y="415.54487" style="fill: #ff0000; fill-opacity: 0.7; stroke: #ff0000; stroke-opacity: 0.7"/>
    </g>
   </g>
   <g id="PathCollection_3">
    <g clip-path="url(#p074a335015)">
     <use xlink:href="#md42a833c95" x="239.728837" y="250.603285" style="fill: #ff0000; fill-opacity: 0.7; stroke: #ff0000; stroke-opacity: 0.7"/>
    </g>
   </g>
   <g id="PathCollection_4">
    <defs>
     <path id="m950e853be7" d="M 0 3 
C 0.795609 3 1.55874 2.683901 2.12132 2.12132 
C 2.683901 1.55874 3 0.795609 3 0 
C 3 -0.795609 2.683901 -1.55874 2.12132 -2.12132 
C 1.55874 -2.683901 0.795609 -3 0 -3 
C -0.795609 -3 -1.55874 -2.683901 -2.12132 -2.12132 
C -2.683901 -1.55874 -3 -0.795609 -3 0 
C -3 0.795609 -2.683901 1.55874 -2.12132 2.12132 
C -1.55874 2.683901 -0.795609 3 0 3 
z
" style="stroke: #0000ff; stroke-opacity: 0.7"/>
    </defs>
    <g clip-path="url(#p074a335015)">
     <use xlink:href="#m950e853be7" x="502.214468" y="326.686776" style="fill: #0000ff; fill-opacity: 0.7; stroke: #0000ff; stroke-opacity: 0.7"/>
    </g>
   </g>
   <g id="PathCollection_5">
    <g clip-path="url(#p074a335015)">
     <use xlink:href="#m950e853be7" x="410.017222" y="116.319767" style="fill: #0000ff; fill-opacity: 0.7; stroke: #0000ff; stroke-opacity: 0.7"/>
    </g>
   </g>
   <g id="PathCollection_6">
    <g clip-path="url(#p074a335015)">
     <use xlink:href="#m950e853be7" x="231.510609" y="272.394029" style="fill: #0000ff; fill-opacity: 0.7; stroke: #0000ff; stroke-opacity: 0.7"/>
    </g>
   </g>
   <g id="PathCollection_7">
    <defs>
     <path id="m5ec147827e" d="M 0 3 
C 0.795609 3 1.55874 2.683901 2.12132 2.12132 
C 2.683901 1.55874 3 0.795609 3 0 
C 3 -0.795609 2.683901 -1.55874 2.12132 -2.12132 
C 1.55874 -2.683901 0.795609 -3 0 -3 
C -0.795609 -3 -1.55874 -2.683901 -2.12132 -2.12132 
C -2.683901 -1.55874 -3 -0.795609 -3 0 
C -3 0.795609 -2.683901 1.55874 -2.12132 2.12132 
C -1.55874 2.683901 -0.795609 3 0 3 
z
" style="stroke: #008000; stroke-opacity: 0.7"/>
    </defs>
    <g clip-path="url(#p074a335015)">
     <use xlink:href="#m5ec147827e" x="212.45354" y="387.408074" style="fill: #008000; fill-opacity: 0.7; stroke: #008000; stroke-opacity: 0.7"/>
    </g>
   </g>
   <g id="PathCollection_8">
    <g clip-path="url(#p074a335015)">
     <use xlink:href="#m5ec147827e" x="473.502103" y="42.478125" style="fill: #008000; fill-opacity: 0.7; stroke: #008000; stroke-opacity: 0.7"/>
    </g>
   </g>
   <g id="PathCollection_9">
    <g clip-path="url(#p074a335015)">
     <use xlink:href="#m5ec147827e" x="750.257273" y="445.678125" style="fill: #008000; fill-opacity: 0.7; stroke: #008000; stroke-opacity: 0.7"/>
    </g>
   </g>
   <g id="PathCollection_10"/>
   <g id="PathCollection_11"/>
   <g id="PathCollection_12"/>
   <g id="matplotlib.axis_1">
    <g id="xtick_1">
     <g id="line2d_1">
      <path d="M 192.077427 465.838125 
L 192.077427 22.318125 
" clip-path="url(#p074a335015)" style="fill: none; stroke: #b0b0b0; stroke-width: 0.8; stroke-linecap: square"/>
     </g>
     <g id="line2d_2">
      <defs>
       <path id="m7babf0ff30" d="M 0 0 
L 0 3.5 
" style="stroke: #000000; stroke-width: 0.8"/>
      </defs>
      <g>
       <use xlink:href="#m7babf0ff30" x="192.077427" y="465.838125" style="stroke: #000000; stroke-width: 0.8"/>
      </g>
     </g>
     <g id="text_1">
      <!-- −10 -->
      <g transform="translate(181.525083 480.436562) scale(0.1 -0.1)">
       <defs>
        <path id="DejaVuSans-2212" d="M 678 2272 
L 4684 2272 
L 4684 1741 
L 678 1741 
L 678 2272 
z
" transform="scale(0.015625)"/>
        <path id="DejaVuSans-31" d="M 794 531 
L 1825 531 
L 1825 4091 
L 703 3866 
L 703 4441 
L 1819 4666 
L 2450 4666 
L 2450 531 
L 3481 531 
L 3481 0 
L 794 0 
L 794 531 
z
" transform="scale(0.015625)"/>
        <path id="DejaVuSans-30" d="M 2034 4250 
Q 1547 4250 1301 3770 
Q 1056 3291 1056 2328 
Q 1056 1369 1301 889 
Q 1547 409 2034 409 
Q 2525 409 2770 889 
Q 3016 1369 3016 2328 
Q 3016 3291 2770 3770 
Q 2525 4250 2034 4250 
z
M 2034 4750 
Q 2819 4750 3233 4129 
Q 3647 3509 3647 2328 
Q 3647 1150 3233 529 
Q 2819 -91 2034 -91 
Q 1250 -91 836 529 
Q 422 1150 422 2328 
Q 422 3509 836 4129 
Q 1250 4750 2034 4750 
z
" transform="scale(0.015625)"/>
       </defs>
       <use xlink:href="#DejaVuSans-2212"/>
       <use xlink:href="#DejaVuSans-31" x="83.789062"/>
       <use xlink:href="#DejaVuSans-30" x="147.412109"/>
      </g>
     </g>
    </g>
    <g id="xtick_2">
     <g id="line2d_3">
      <path d="M 275.870614 465.838125 
L 275.870614 22.318125 
" clip-path="url(#p074a335015)" style="fill: none; stroke: #b0b0b0; stroke-width: 0.8; stroke-linecap: square"/>
     </g>
     <g id="line2d_4">
      <g>
       <use xlink:href="#m7babf0ff30" x="275.870614" y="465.838125" style="stroke: #000000; stroke-width: 0.8"/>
      </g>
     </g>
     <g id="text_2">
      <!-- −5 -->
      <g transform="translate(268.49952 480.436562) scale(0.1 -0.1)">
       <defs>
        <path id="DejaVuSans-35" d="M 691 4666 
L 3169 4666 
L 3169 4134 
L 1269 4134 
L 1269 2991 
Q 1406 3038 1543 3061 
Q 1681 3084 1819 3084 
Q 2600 3084 3056 2656 
Q 3513 2228 3513 1497 
Q 3513 744 3044 326 
Q 2575 -91 1722 -91 
Q 1428 -91 1123 -41 
Q 819 9 494 109 
L 494 744 
Q 775 591 1075 516 
Q 1375 441 1709 441 
Q 2250 441 2565 725 
Q 2881 1009 2881 1497 
Q 2881 1984 2565 2268 
Q 2250 2553 1709 2553 
Q 1456 2553 1204 2497 
Q 953 2441 691 2322 
L 691 4666 
z
" transform="scale(0.015625)"/>
       </defs>
       <use xlink:href="#DejaVuSans-2212"/>
       <use xlink:href="#DejaVuSans-35" x="83.789062"/>
      </g>
     </g>
    </g>
    <g id="xtick_3">
     <g id="line2d_5">
      <path d="M 359.6638 465.838125 
L 359.6638 22.318125 
" clip-path="url(#p074a335015)" style="fill: none; stroke: #b0b0b0; stroke-width: 0.8; stroke-linecap: square"/>
     </g>
     <g id="line2d_6">
      <g>
       <use xlink:href="#m7babf0ff30" x="359.6638" y="465.838125" style="stroke: #000000; stroke-width: 0.8"/>
      </g>
     </g>
     <g id="text_3">
      <!-- 0 -->
      <g transform="translate(356.48255 480.436562) scale(0.1 -0.1)">
       <use xlink:href="#DejaVuSans-30"/>
      </g>
     </g>
    </g>
    <g id="xtick_4">
     <g id="line2d_7">
      <path d="M 443.456987 465.838125 
L 443.456987 22.318125 
" clip-path="url(#p074a335015)" style="fill: none; stroke: #b0b0b0; stroke-width: 0.8; stroke-linecap: square"/>
     </g>
     <g id="line2d_8">
      <g>
       <use xlink:href="#m7babf0ff30" x="443.456987" y="465.838125" style="stroke: #000000; stroke-width: 0.8"/>
      </g>
     </g>
     <g id="text_4">
      <!-- 5 -->
      <g transform="translate(440.275737 480.436562) scale(0.1 -0.1)">
       <use xlink:href="#DejaVuSans-35"/>
      </g>
     </g>
    </g>
    <g id="xtick_5">
     <g id="line2d_9">
      <path d="M 527.250173 465.838125 
L 527.250173 22.318125 
" clip-path="url(#p074a335015)" style="fill: none; stroke: #b0b0b0; stroke-width: 0.8; stroke-linecap: square"/>
     </g>
     <g id="line2d_10">
      <g>
       <use xlink:href="#m7babf0ff30" x="527.250173" y="465.838125" style="stroke: #000000; stroke-width: 0.8"/>
      </g>
     </g>
     <g id="text_5">
      <!-- 10 -->
      <g transform="translate(520.887673 480.436562) scale(0.1 -0.1)">
       <use xlink:href="#DejaVuSans-31"/>
       <use xlink:href="#DejaVuSans-30" x="63.623047"/>
      </g>
     </g>
    </g>
    <g id="xtick_6">
     <g id="line2d_11">
      <path d="M 611.04336 465.838125 
L 611.04336 22.318125 
" clip-path="url(#p074a335015)" style="fill: none; stroke: #b0b0b0; stroke-width: 0.8; stroke-linecap: square"/>
     </g>
     <g id="line2d_12">
      <g>
       <use xlink:href="#m7babf0ff30" x="611.04336" y="465.838125" style="stroke: #000000; stroke-width: 0.8"/>
      </g>
     </g>
     <g id="text_6">
      <!-- 15 -->
      <g transform="translate(604.68086 480.436562) scale(0.1 -0.1)">
       <use xlink:href="#DejaVuSans-31"/>
       <use xlink:href="#DejaVuSans-35" x="63.623047"/>
      </g>
     </g>
    </g>
    <g id="xtick_7">
     <g id="line2d_13">
      <path d="M 694.836547 465.838125 
L 694.836547 22.318125 
" clip-path="url(#p074a335015)" style="fill: none; stroke: #b0b0b0; stroke-width: 0.8; stroke-linecap: square"/>
     </g>
     <g id="line2d_14">
      <g>
       <use xlink:href="#m7babf0ff30" x="694.836547" y="465.838125" style="stroke: #000000; stroke-width: 0.8"/>
      </g>
     </g>
     <g id="text_7">
      <!-- 20 -->
      <g transform="translate(688.474047 480.436562) scale(0.1 -0.1)">
       <defs>
        <path id="DejaVuSans-32" d="M 1228 531 
L 3431 531 
L 3431 0 
L 469 0 
L 469 531 
Q 828 903 1448 1529 
Q 2069 2156 2228 2338 
Q 2531 2678 2651 2914 
Q 2772 3150 2772 3378 
Q 2772 3750 2511 3984 
Q 2250 4219 1831 4219 
Q 1534 4219 1204 4116 
Q 875 4013 500 3803 
L 500 4441 
Q 881 4594 1212 4672 
Q 1544 4750 1819 4750 
Q 2544 4750 2975 4387 
Q 3406 4025 3406 3419 
Q 3406 3131 3298 2873 
Q 3191 2616 2906 2266 
Q 2828 2175 2409 1742 
Q 1991 1309 1228 531 
z
" transform="scale(0.015625)"/>
       </defs>
       <use xlink:href="#DejaVuSans-32"/>
       <use xlink:href="#DejaVuSans-30" x="63.623047"/>
      </g>
     </g>
    </g>
    <g id="xtick_8">
     <g id="line2d_15">
      <path d="M 778.629733 465.838125 
L 778.629733 22.318125 
" clip-path="url(#p074a335015)" style="fill: none; stroke: #b0b0b0; stroke-width: 0.8; stroke-linecap: square"/>
     </g>
     <g id="line2d_16">
      <g>
       <use xlink:href="#m7babf0ff30" x="778.629733" y="465.838125" style="stroke: #000000; stroke-width: 0.8"/>
      </g>
     </g>
     <g id="text_8">
      <!-- 25 -->
      <g transform="translate(772.267233 480.436562) scale(0.1 -0.1)">
       <use xlink:href="#DejaVuSans-32"/>
       <use xlink:href="#DejaVuSans-35" x="63.623047"/>
      </g>
     </g>
    </g>
    <g id="text_9">
     <!-- First Principal Component -->
     <g transform="translate(381.857699 494.114687) scale(0.1 -0.1)">
      <defs>
       <path id="DejaVuSans-46" d="M 628 4666 
L 3309 4666 
L 3309 4134 
L 1259 4134 
L 1259 2759 
L 3109 2759 
L 3109 2228 
L 1259 2228 
L 1259 0 
L 628 0 
L 628 4666 
z
" transform="scale(0.015625)"/>
       <path id="DejaVuSans-69" d="M 603 3500 
L 1178 3500 
L 1178 0 
L 603 0 
L 603 3500 
z
M 603 4863 
L 1178 4863 
L 1178 4134 
L 603 4134 
L 603 4863 
z
" transform="scale(0.015625)"/>
       <path id="DejaVuSans-72" d="M 2631 2963 
Q 2534 3019 2420 3045 
Q 2306 3072 2169 3072 
Q 1681 3072 1420 2755 
Q 1159 2438 1159 1844 
L 1159 0 
L 581 0 
L 581 3500 
L 1159 3500 
L 1159 2956 
Q 1341 3275 1631 3429 
Q 1922 3584 2338 3584 
Q 2397 3584 2469 3576 
Q 2541 3569 2628 3553 
L 2631 2963 
z
" transform="scale(0.015625)"/>
       <path id="DejaVuSans-73" d="M 2834 3397 
L 2834 2853 
Q 2591 2978 2328 3040 
Q 2066 3103 1784 3103 
Q 1356 3103 1142 2972 
Q 928 2841 928 2578 
Q 928 2378 1081 2264 
Q 1234 2150 1697 2047 
L 1894 2003 
Q 2506 1872 2764 1633 
Q 3022 1394 3022 966 
Q 3022 478 2636 193 
Q 2250 -91 1575 -91 
Q 1294 -91 989 -36 
Q 684 19 347 128 
L 347 722 
Q 666 556 975 473 
Q 1284 391 1588 391 
Q 1994 391 2212 530 
Q 2431 669 2431 922 
Q 2431 1156 2273 1281 
Q 2116 1406 1581 1522 
L 1381 1569 
Q 847 1681 609 1914 
Q 372 2147 372 2553 
Q 372 3047 722 3315 
Q 1072 3584 1716 3584 
Q 2034 3584 2315 3537 
Q 2597 3491 2834 3397 
z
" transform="scale(0.015625)"/>
       <path id="DejaVuSans-74" d="M 1172 4494 
L 1172 3500 
L 2356 3500 
L 2356 3053 
L 1172 3053 
L 1172 1153 
Q 1172 725 1289 603 
Q 1406 481 1766 481 
L 2356 481 
L 2356 0 
L 1766 0 
Q 1100 0 847 248 
Q 594 497 594 1153 
L 594 3053 
L 172 3053 
L 172 3500 
L 594 3500 
L 594 4494 
L 1172 4494 
z
" transform="scale(0.015625)"/>
       <path id="DejaVuSans-20" transform="scale(0.015625)"/>
       <path id="DejaVuSans-50" d="M 1259 4147 
L 1259 2394 
L 2053 2394 
Q 2494 2394 2734 2622 
Q 2975 2850 2975 3272 
Q 2975 3691 2734 3919 
Q 2494 4147 2053 4147 
L 1259 4147 
z
M 628 4666 
L 2053 4666 
Q 2838 4666 3239 4311 
Q 3641 3956 3641 3272 
Q 3641 2581 3239 2228 
Q 2838 1875 2053 1875 
L 1259 1875 
L 1259 0 
L 628 0 
L 628 4666 
z
" transform="scale(0.015625)"/>
       <path id="DejaVuSans-6e" d="M 3513 2113 
L 3513 0 
L 2938 0 
L 2938 2094 
Q 2938 2591 2744 2837 
Q 2550 3084 2163 3084 
Q 1697 3084 1428 2787 
Q 1159 2491 1159 1978 
L 1159 0 
L 581 0 
L 581 3500 
L 1159 3500 
L 1159 2956 
Q 1366 3272 1645 3428 
Q 1925 3584 2291 3584 
Q 2894 3584 3203 3211 
Q 3513 2838 3513 2113 
z
" transform="scale(0.015625)"/>
       <path id="DejaVuSans-63" d="M 3122 3366 
L 3122 2828 
Q 2878 2963 2633 3030 
Q 2388 3097 2138 3097 
Q 1578 3097 1268 2742 
Q 959 2388 959 1747 
Q 959 1106 1268 751 
Q 1578 397 2138 397 
Q 2388 397 2633 464 
Q 2878 531 3122 666 
L 3122 134 
Q 2881 22 2623 -34 
Q 2366 -91 2075 -91 
Q 1284 -91 818 406 
Q 353 903 353 1747 
Q 353 2603 823 3093 
Q 1294 3584 2113 3584 
Q 2378 3584 2631 3529 
Q 2884 3475 3122 3366 
z
" transform="scale(0.015625)"/>
       <path id="DejaVuSans-70" d="M 1159 525 
L 1159 -1331 
L 581 -1331 
L 581 3500 
L 1159 3500 
L 1159 2969 
Q 1341 3281 1617 3432 
Q 1894 3584 2278 3584 
Q 2916 3584 3314 3078 
Q 3713 2572 3713 1747 
Q 3713 922 3314 415 
Q 2916 -91 2278 -91 
Q 1894 -91 1617 61 
Q 1341 213 1159 525 
z
M 3116 1747 
Q 3116 2381 2855 2742 
Q 2594 3103 2138 3103 
Q 1681 3103 1420 2742 
Q 1159 2381 1159 1747 
Q 1159 1113 1420 752 
Q 1681 391 2138 391 
Q 2594 391 2855 752 
Q 3116 1113 3116 1747 
z
" transform="scale(0.015625)"/>
       <path id="DejaVuSans-61" d="M 2194 1759 
Q 1497 1759 1228 1600 
Q 959 1441 959 1056 
Q 959 750 1161 570 
Q 1363 391 1709 391 
Q 2188 391 2477 730 
Q 2766 1069 2766 1631 
L 2766 1759 
L 2194 1759 
z
M 3341 1997 
L 3341 0 
L 2766 0 
L 2766 531 
Q 2569 213 2275 61 
Q 1981 -91 1556 -91 
Q 1019 -91 701 211 
Q 384 513 384 1019 
Q 384 1609 779 1909 
Q 1175 2209 1959 2209 
L 2766 2209 
L 2766 2266 
Q 2766 2663 2505 2880 
Q 2244 3097 1772 3097 
Q 1472 3097 1187 3025 
Q 903 2953 641 2809 
L 641 3341 
Q 956 3463 1253 3523 
Q 1550 3584 1831 3584 
Q 2591 3584 2966 3190 
Q 3341 2797 3341 1997 
z
" transform="scale(0.015625)"/>
       <path id="DejaVuSans-6c" d="M 603 4863 
L 1178 4863 
L 1178 0 
L 603 0 
L 603 4863 
z
" transform="scale(0.015625)"/>
       <path id="DejaVuSans-43" d="M 4122 4306 
L 4122 3641 
Q 3803 3938 3442 4084 
Q 3081 4231 2675 4231 
Q 1875 4231 1450 3742 
Q 1025 3253 1025 2328 
Q 1025 1406 1450 917 
Q 1875 428 2675 428 
Q 3081 428 3442 575 
Q 3803 722 4122 1019 
L 4122 359 
Q 3791 134 3420 21 
Q 3050 -91 2638 -91 
Q 1578 -91 968 557 
Q 359 1206 359 2328 
Q 359 3453 968 4101 
Q 1578 4750 2638 4750 
Q 3056 4750 3426 4639 
Q 3797 4528 4122 4306 
z
" transform="scale(0.015625)"/>
       <path id="DejaVuSans-6f" d="M 1959 3097 
Q 1497 3097 1228 2736 
Q 959 2375 959 1747 
Q 959 1119 1226 758 
Q 1494 397 1959 397 
Q 2419 397 2687 759 
Q 2956 1122 2956 1747 
Q 2956 2369 2687 2733 
Q 2419 3097 1959 3097 
z
M 1959 3584 
Q 2709 3584 3137 3096 
Q 3566 2609 3566 1747 
Q 3566 888 3137 398 
Q 2709 -91 1959 -91 
Q 1206 -91 779 398 
Q 353 888 353 1747 
Q 353 2609 779 3096 
Q 1206 3584 1959 3584 
z
" transform="scale(0.015625)"/>
       <path id="DejaVuSans-6d" d="M 3328 2828 
Q 3544 3216 3844 3400 
Q 4144 3584 4550 3584 
Q 5097 3584 5394 3201 
Q 5691 2819 5691 2113 
L 5691 0 
L 5113 0 
L 5113 2094 
Q 5113 2597 4934 2840 
Q 4756 3084 4391 3084 
Q 3944 3084 3684 2787 
Q 3425 2491 3425 1978 
L 3425 0 
L 2847 0 
L 2847 2094 
Q 2847 2600 2669 2842 
Q 2491 3084 2119 3084 
Q 1678 3084 1418 2786 
Q 1159 2488 1159 1978 
L 1159 0 
L 581 0 
L 581 3500 
L 1159 3500 
L 1159 2956 
Q 1356 3278 1631 3431 
Q 1906 3584 2284 3584 
Q 2666 3584 2933 3390 
Q 3200 3197 3328 2828 
z
" transform="scale(0.015625)"/>
       <path id="DejaVuSans-65" d="M 3597 1894 
L 3597 1613 
L 953 1613 
Q 991 1019 1311 708 
Q 1631 397 2203 397 
Q 2534 397 2845 478 
Q 3156 559 3463 722 
L 3463 178 
Q 3153 47 2828 -22 
Q 2503 -91 2169 -91 
Q 1331 -91 842 396 
Q 353 884 353 1716 
Q 353 2575 817 3079 
Q 1281 3584 2069 3584 
Q 2775 3584 3186 3129 
Q 3597 2675 3597 1894 
z
M 3022 2063 
Q 3016 2534 2758 2815 
Q 2500 3097 2075 3097 
Q 1594 3097 1305 2825 
Q 1016 2553 972 2059 
L 3022 2063 
z
" transform="scale(0.015625)"/>
      </defs>
      <use xlink:href="#DejaVuSans-46"/>
      <use xlink:href="#DejaVuSans-69" x="50.269531"/>
      <use xlink:href="#DejaVuSans-72" x="78.052734"/>
      <use xlink:href="#DejaVuSans-73" x="119.166016"/>
      <use xlink:href="#DejaVuSans-74" x="171.265625"/>
      <use xlink:href="#DejaVuSans-20" x="210.474609"/>
      <use xlink:href="#DejaVuSans-50" x="242.261719"/>
      <use xlink:href="#DejaVuSans-72" x="300.814453"/>
      <use xlink:href="#DejaVuSans-69" x="341.927734"/>
      <use xlink:href="#DejaVuSans-6e" x="369.710938"/>
      <use xlink:href="#DejaVuSans-63" x="433.089844"/>
      <use xlink:href="#DejaVuSans-69" x="488.070312"/>
      <use xlink:href="#DejaVuSans-70" x="515.853516"/>
      <use xlink:href="#DejaVuSans-61" x="579.330078"/>
      <use xlink:href="#DejaVuSans-6c" x="640.609375"/>
      <use xlink:href="#DejaVuSans-20" x="668.392578"/>
      <use xlink:href="#DejaVuSans-43" x="700.179688"/>
      <use xlink:href="#DejaVuSans-6f" x="770.003906"/>
      <use xlink:href="#DejaVuSans-6d" x="831.185547"/>
      <use xlink:href="#DejaVuSans-70" x="928.597656"/>
      <use xlink:href="#DejaVuSans-6f" x="992.074219"/>
      <use xlink:href="#DejaVuSans-6e" x="1053.255859"/>
      <use xlink:href="#DejaVuSans-65" x="1116.634766"/>
      <use xlink:href="#DejaVuSans-6e" x="1178.158203"/>
      <use xlink:href="#DejaVuSans-74" x="1241.537109"/>
     </g>
    </g>
   </g>
   <g id="matplotlib.axis_2">
    <g id="ytick_1">
     <g id="line2d_17">
      <path d="M 111.093636 464.157778 
L 780.693636 464.157778 
" clip-path="url(#p074a335015)" style="fill: none; stroke: #b0b0b0; stroke-width: 0.8; stroke-linecap: square"/>
     </g>
     <g id="line2d_18">
      <defs>
       <path id="m97f7ebdc9d" d="M 0 0 
L -3.5 0 
" style="stroke: #000000; stroke-width: 0.8"/>
      </defs>
      <g>
       <use xlink:href="#m97f7ebdc9d" x="111.093636" y="464.157778" style="stroke: #000000; stroke-width: 0.8"/>
      </g>
     </g>
     <g id="text_10">
      <!-- −15 -->
      <g transform="translate(82.988949 467.956997) scale(0.1 -0.1)">
       <use xlink:href="#DejaVuSans-2212"/>
       <use xlink:href="#DejaVuSans-31" x="83.789062"/>
       <use xlink:href="#DejaVuSans-35" x="147.412109"/>
      </g>
     </g>
    </g>
    <g id="ytick_2">
     <g id="line2d_19">
      <path d="M 111.093636 401.290815 
L 780.693636 401.290815 
" clip-path="url(#p074a335015)" style="fill: none; stroke: #b0b0b0; stroke-width: 0.8; stroke-linecap: square"/>
     </g>
     <g id="line2d_20">
      <g>
       <use xlink:href="#m97f7ebdc9d" x="111.093636" y="401.290815" style="stroke: #000000; stroke-width: 0.8"/>
      </g>
     </g>
     <g id="text_11">
      <!-- −10 -->
      <g transform="translate(82.988949 405.090034) scale(0.1 -0.1)">
       <use xlink:href="#DejaVuSans-2212"/>
       <use xlink:href="#DejaVuSans-31" x="83.789062"/>
       <use xlink:href="#DejaVuSans-30" x="147.412109"/>
      </g>
     </g>
    </g>
    <g id="ytick_3">
     <g id="line2d_21">
      <path d="M 111.093636 338.423852 
L 780.693636 338.423852 
" clip-path="url(#p074a335015)" style="fill: none; stroke: #b0b0b0; stroke-width: 0.8; stroke-linecap: square"/>
     </g>
     <g id="line2d_22">
      <g>
       <use xlink:href="#m97f7ebdc9d" x="111.093636" y="338.423852" style="stroke: #000000; stroke-width: 0.8"/>
      </g>
     </g>
     <g id="text_12">
      <!-- −5 -->
      <g transform="translate(89.351449 342.223071) scale(0.1 -0.1)">
       <use xlink:href="#DejaVuSans-2212"/>
       <use xlink:href="#DejaVuSans-35" x="83.789062"/>
      </g>
     </g>
    </g>
    <g id="ytick_4">
     <g id="line2d_23">
      <path d="M 111.093636 275.556889 
L 780.693636 275.556889 
" clip-path="url(#p074a335015)" style="fill: none; stroke: #b0b0b0; stroke-width: 0.8; stroke-linecap: square"/>
     </g>
     <g id="line2d_24">
      <g>
       <use xlink:href="#m97f7ebdc9d" x="111.093636" y="275.556889" style="stroke: #000000; stroke-width: 0.8"/>
      </g>
     </g>
     <g id="text_13">
      <!-- 0 -->
      <g transform="translate(97.731136 279.356108) scale(0.1 -0.1)">
       <use xlink:href="#DejaVuSans-30"/>
      </g>
     </g>
    </g>
    <g id="ytick_5">
     <g id="line2d_25">
      <path d="M 111.093636 212.689926 
L 780.693636 212.689926 
" clip-path="url(#p074a335015)" style="fill: none; stroke: #b0b0b0; stroke-width: 0.8; stroke-linecap: square"/>
     </g>
     <g id="line2d_26">
      <g>
       <use xlink:href="#m97f7ebdc9d" x="111.093636" y="212.689926" style="stroke: #000000; stroke-width: 0.8"/>
      </g>
     </g>
     <g id="text_14">
      <!-- 5 -->
      <g transform="translate(97.731136 216.489145) scale(0.1 -0.1)">
       <use xlink:href="#DejaVuSans-35"/>
      </g>
     </g>
    </g>
    <g id="ytick_6">
     <g id="line2d_27">
      <path d="M 111.093636 149.822963 
L 780.693636 149.822963 
" clip-path="url(#p074a335015)" style="fill: none; stroke: #b0b0b0; stroke-width: 0.8; stroke-linecap: square"/>
     </g>
     <g id="line2d_28">
      <g>
       <use xlink:href="#m97f7ebdc9d" x="111.093636" y="149.822963" style="stroke: #000000; stroke-width: 0.8"/>
      </g>
     </g>
     <g id="text_15">
      <!-- 10 -->
      <g transform="translate(91.368636 153.622182) scale(0.1 -0.1)">
       <use xlink:href="#DejaVuSans-31"/>
       <use xlink:href="#DejaVuSans-30" x="63.623047"/>
      </g>
     </g>
    </g>
    <g id="ytick_7">
     <g id="line2d_29">
      <path d="M 111.093636 86.956 
L 780.693636 86.956 
" clip-path="url(#p074a335015)" style="fill: none; stroke: #b0b0b0; stroke-width: 0.8; stroke-linecap: square"/>
     </g>
     <g id="line2d_30">
      <g>
       <use xlink:href="#m97f7ebdc9d" x="111.093636" y="86.956" style="stroke: #000000; stroke-width: 0.8"/>
      </g>
     </g>
     <g id="text_16">
      <!-- 15 -->
      <g transform="translate(91.368636 90.755219) scale(0.1 -0.1)">
       <use xlink:href="#DejaVuSans-31"/>
       <use xlink:href="#DejaVuSans-35" x="63.623047"/>
      </g>
     </g>
    </g>
    <g id="ytick_8">
     <g id="line2d_31">
      <path d="M 111.093636 24.089037 
L 780.693636 24.089037 
" clip-path="url(#p074a335015)" style="fill: none; stroke: #b0b0b0; stroke-width: 0.8; stroke-linecap: square"/>
     </g>
     <g id="line2d_32">
      <g>
       <use xlink:href="#m97f7ebdc9d" x="111.093636" y="24.089037" style="stroke: #000000; stroke-width: 0.8"/>
      </g>
     </g>
     <g id="text_17">
      <!-- 20 -->
      <g transform="translate(91.368636 27.888256) scale(0.1 -0.1)">
       <use xlink:href="#DejaVuSans-32"/>
       <use xlink:href="#DejaVuSans-30" x="63.623047"/>
      </g>
     </g>
    </g>
    <g id="text_18">
     <!-- Second Principal Component -->
     <g transform="translate(76.909261 315.99375) rotate(-90) scale(0.1 -0.1)">
      <defs>
       <path id="DejaVuSans-53" d="M 3425 4513 
L 3425 3897 
Q 3066 4069 2747 4153 
Q 2428 4238 2131 4238 
Q 1616 4238 1336 4038 
Q 1056 3838 1056 3469 
Q 1056 3159 1242 3001 
Q 1428 2844 1947 2747 
L 2328 2669 
Q 3034 2534 3370 2195 
Q 3706 1856 3706 1288 
Q 3706 609 3251 259 
Q 2797 -91 1919 -91 
Q 1588 -91 1214 -16 
Q 841 59 441 206 
L 441 856 
Q 825 641 1194 531 
Q 1563 422 1919 422 
Q 2459 422 2753 634 
Q 3047 847 3047 1241 
Q 3047 1584 2836 1778 
Q 2625 1972 2144 2069 
L 1759 2144 
Q 1053 2284 737 2584 
Q 422 2884 422 3419 
Q 422 4038 858 4394 
Q 1294 4750 2059 4750 
Q 2388 4750 2728 4690 
Q 3069 4631 3425 4513 
z
" transform="scale(0.015625)"/>
       <path id="DejaVuSans-64" d="M 2906 2969 
L 2906 4863 
L 3481 4863 
L 3481 0 
L 2906 0 
L 2906 525 
Q 2725 213 2448 61 
Q 2172 -91 1784 -91 
Q 1150 -91 751 415 
Q 353 922 353 1747 
Q 353 2572 751 3078 
Q 1150 3584 1784 3584 
Q 2172 3584 2448 3432 
Q 2725 3281 2906 2969 
z
M 947 1747 
Q 947 1113 1208 752 
Q 1469 391 1925 391 
Q 2381 391 2643 752 
Q 2906 1113 2906 1747 
Q 2906 2381 2643 2742 
Q 2381 3103 1925 3103 
Q 1469 3103 1208 2742 
Q 947 2381 947 1747 
z
" transform="scale(0.015625)"/>
      </defs>
      <use xlink:href="#DejaVuSans-53"/>
      <use xlink:href="#DejaVuSans-65" x="63.476562"/>
      <use xlink:href="#DejaVuSans-63" x="125"/>
      <use xlink:href="#DejaVuSans-6f" x="179.980469"/>
      <use xlink:href="#DejaVuSans-6e" x="241.162109"/>
      <use xlink:href="#DejaVuSans-64" x="304.541016"/>
      <use xlink:href="#DejaVuSans-20" x="368.017578"/>
      <use xlink:href="#DejaVuSans-50" x="399.804688"/>
      <use xlink:href="#DejaVuSans-72" x="458.357422"/>
      <use xlink:href="#DejaVuSans-69" x="499.470703"/>
      <use xlink:href="#DejaVuSans-6e" x="527.253906"/>
      <use xlink:href="#DejaVuSans-63" x="590.632812"/>
      <use xlink:href="#DejaVuSans-69" x="645.613281"/>
      <use xlink:href="#DejaVuSans-70" x="673.396484"/>
      <use xlink:href="#DejaVuSans-61" x="736.873047"/>
      <use xlink:href="#DejaVuSans-6c" x="798.152344"/>
      <use xlink:href="#DejaVuSans-20" x="825.935547"/>
      <use xlink:href="#DejaVuSans-43" x="857.722656"/>
      <use xlink:href="#DejaVuSans-6f" x="927.546875"/>
      <use xlink:href="#DejaVuSans-6d" x="988.728516"/>
      <use xlink:href="#DejaVuSans-70" x="1086.140625"/>
      <use xlink:href="#DejaVuSans-6f" x="1149.617188"/>
      <use xlink:href="#DejaVuSans-6e" x="1210.798828"/>
      <use xlink:href="#DejaVuSans-65" x="1274.177734"/>
      <use xlink:href="#DejaVuSans-6e" x="1335.701172"/>
      <use xlink:href="#DejaVuSans-74" x="1399.080078"/>
     </g>
    </g>
   </g>
   <g id="patch_3">
    <path d="M 111.093636 465.838125 
L 111.093636 22.318125 
" style="fill: none; stroke: #000000; stroke-width: 0.8; stroke-linejoin: miter; stroke-linecap: square"/>
   </g>
   <g id="patch_4">
    <path d="M 780.693636 465.838125 
L 780.693636 22.318125 
" style="fill: none; stroke: #000000; stroke-width: 0.8; stroke-linejoin: miter; stroke-linecap: square"/>
   </g>
   <g id="patch_5">
    <path d="M 111.093636 465.838125 
L 780.693636 465.838125 
" style="fill: none; stroke: #000000; stroke-width: 0.8; stroke-linejoin: miter; stroke-linecap: square"/>
   </g>
   <g id="patch_6">
    <path d="M 111.093636 22.318125 
L 780.693636 22.318125 
" style="fill: none; stroke: #000000; stroke-width: 0.8; stroke-linejoin: miter; stroke-linecap: square"/>
   </g>
   <g id="text_19">
    <g id="patch_7">
     <path d="M 87.196401 224.898951 
L 280.760151 224.898951 
Q 284.760151 224.898951 284.760151 220.898951 
L 284.760151 213.156451 
Q 284.760151 209.156451 280.760151 209.156451 
L 87.196401 209.156451 
Q 83.196401 209.156451 83.196401 213.156451 
L 83.196401 220.898951 
Q 83.196401 224.898951 87.196401 224.898951 
z
" style="fill: #ffff00; opacity: 0.1; stroke: #000000; stroke-linejoin: miter"/>
    </g>
    <!-- Lakers Clinch Playoff Spot with Overtime Victory -->
    <g transform="translate(87.196401 219.235201) scale(0.08 -0.08)">
     <defs>
      <path id="DejaVuSans-4c" d="M 628 4666 
L 1259 4666 
L 1259 531 
L 3531 531 
L 3531 0 
L 628 0 
L 628 4666 
z
" transform="scale(0.015625)"/>
      <path id="DejaVuSans-6b" d="M 581 4863 
L 1159 4863 
L 1159 1991 
L 2875 3500 
L 3609 3500 
L 1753 1863 
L 3688 0 
L 2938 0 
L 1159 1709 
L 1159 0 
L 581 0 
L 581 4863 
z
" transform="scale(0.015625)"/>
      <path id="DejaVuSans-68" d="M 3513 2113 
L 3513 0 
L 2938 0 
L 2938 2094 
Q 2938 2591 2744 2837 
Q 2550 3084 2163 3084 
Q 1697 3084 1428 2787 
Q 1159 2491 1159 1978 
L 1159 0 
L 581 0 
L 581 4863 
L 1159 4863 
L 1159 2956 
Q 1366 3272 1645 3428 
Q 1925 3584 2291 3584 
Q 2894 3584 3203 3211 
Q 3513 2838 3513 2113 
z
" transform="scale(0.015625)"/>
      <path id="DejaVuSans-79" d="M 2059 -325 
Q 1816 -950 1584 -1140 
Q 1353 -1331 966 -1331 
L 506 -1331 
L 506 -850 
L 844 -850 
Q 1081 -850 1212 -737 
Q 1344 -625 1503 -206 
L 1606 56 
L 191 3500 
L 800 3500 
L 1894 763 
L 2988 3500 
L 3597 3500 
L 2059 -325 
z
" transform="scale(0.015625)"/>
      <path id="DejaVuSans-66" d="M 2375 4863 
L 2375 4384 
L 1825 4384 
Q 1516 4384 1395 4259 
Q 1275 4134 1275 3809 
L 1275 3500 
L 2222 3500 
L 2222 3053 
L 1275 3053 
L 1275 0 
L 697 0 
L 697 3053 
L 147 3053 
L 147 3500 
L 697 3500 
L 697 3744 
Q 697 4328 969 4595 
Q 1241 4863 1831 4863 
L 2375 4863 
z
" transform="scale(0.015625)"/>
      <path id="DejaVuSans-77" d="M 269 3500 
L 844 3500 
L 1563 769 
L 2278 3500 
L 2956 3500 
L 3675 769 
L 4391 3500 
L 4966 3500 
L 4050 0 
L 3372 0 
L 2619 2869 
L 1863 0 
L 1184 0 
L 269 3500 
z
" transform="scale(0.015625)"/>
      <path id="DejaVuSans-4f" d="M 2522 4238 
Q 1834 4238 1429 3725 
Q 1025 3213 1025 2328 
Q 1025 1447 1429 934 
Q 1834 422 2522 422 
Q 3209 422 3611 934 
Q 4013 1447 4013 2328 
Q 4013 3213 3611 3725 
Q 3209 4238 2522 4238 
z
M 2522 4750 
Q 3503 4750 4090 4092 
Q 4678 3434 4678 2328 
Q 4678 1225 4090 567 
Q 3503 -91 2522 -91 
Q 1538 -91 948 565 
Q 359 1222 359 2328 
Q 359 3434 948 4092 
Q 1538 4750 2522 4750 
z
" transform="scale(0.015625)"/>
      <path id="DejaVuSans-76" d="M 191 3500 
L 800 3500 
L 1894 563 
L 2988 3500 
L 3597 3500 
L 2284 0 
L 1503 0 
L 191 3500 
z
" transform="scale(0.015625)"/>
      <path id="DejaVuSans-56" d="M 1831 0 
L 50 4666 
L 709 4666 
L 2188 738 
L 3669 4666 
L 4325 4666 
L 2547 0 
L 1831 0 
z
" transform="scale(0.015625)"/>
     </defs>
     <use xlink:href="#DejaVuSans-4c"/>
     <use xlink:href="#DejaVuSans-61" x="55.712891"/>
     <use xlink:href="#DejaVuSans-6b" x="116.992188"/>
     <use xlink:href="#DejaVuSans-65" x="171.277344"/>
     <use xlink:href="#DejaVuSans-72" x="232.800781"/>
     <use xlink:href="#DejaVuSans-73" x="273.914062"/>
     <use xlink:href="#DejaVuSans-20" x="326.013672"/>
     <use xlink:href="#DejaVuSans-43" x="357.800781"/>
     <use xlink:href="#DejaVuSans-6c" x="427.625"/>
     <use xlink:href="#DejaVuSans-69" x="455.408203"/>
     <use xlink:href="#DejaVuSans-6e" x="483.191406"/>
     <use xlink:href="#DejaVuSans-63" x="546.570312"/>
     <use xlink:href="#DejaVuSans-68" x="601.550781"/>
     <use xlink:href="#DejaVuSans-20" x="664.929688"/>
     <use xlink:href="#DejaVuSans-50" x="696.716797"/>
     <use xlink:href="#DejaVuSans-6c" x="757.019531"/>
     <use xlink:href="#DejaVuSans-61" x="784.802734"/>
     <use xlink:href="#DejaVuSans-79" x="846.082031"/>
     <use xlink:href="#DejaVuSans-6f" x="905.261719"/>
     <use xlink:href="#DejaVuSans-66" x="966.443359"/>
     <use xlink:href="#DejaVuSans-66" x="1001.648438"/>
     <use xlink:href="#DejaVuSans-20" x="1036.853516"/>
     <use xlink:href="#DejaVuSans-53" x="1068.640625"/>
     <use xlink:href="#DejaVuSans-70" x="1132.117188"/>
     <use xlink:href="#DejaVuSans-6f" x="1195.59375"/>
     <use xlink:href="#DejaVuSans-74" x="1256.775391"/>
     <use xlink:href="#DejaVuSans-20" x="1295.984375"/>
     <use xlink:href="#DejaVuSans-77" x="1327.771484"/>
     <use xlink:href="#DejaVuSans-69" x="1409.558594"/>
     <use xlink:href="#DejaVuSans-74" x="1437.341797"/>
     <use xlink:href="#DejaVuSans-68" x="1476.550781"/>
     <use xlink:href="#DejaVuSans-20" x="1539.929688"/>
     <use xlink:href="#DejaVuSans-4f" x="1571.716797"/>
     <use xlink:href="#DejaVuSans-76" x="1650.427734"/>
     <use xlink:href="#DejaVuSans-65" x="1709.607422"/>
     <use xlink:href="#DejaVuSans-72" x="1771.130859"/>
     <use xlink:href="#DejaVuSans-74" x="1812.244141"/>
     <use xlink:href="#DejaVuSans-69" x="1851.453125"/>
     <use xlink:href="#DejaVuSans-6d" x="1879.236328"/>
     <use xlink:href="#DejaVuSans-65" x="1976.648438"/>
     <use xlink:href="#DejaVuSans-20" x="2038.171875"/>
     <use xlink:href="#DejaVuSans-56" x="2069.958984"/>
     <use xlink:href="#DejaVuSans-69" x="2136.117188"/>
     <use xlink:href="#DejaVuSans-63" x="2163.900391"/>
     <use xlink:href="#DejaVuSans-74" x="2218.880859"/>
     <use xlink:href="#DejaVuSans-6f" x="2258.089844"/>
     <use xlink:href="#DejaVuSans-72" x="2319.271484"/>
     <use xlink:href="#DejaVuSans-79" x="2360.384766"/>
    </g>
   </g>
   <g id="text_20">
    <g id="patch_8">
     <path d="M 7.2 417.54487 
L 146.53 417.54487 
Q 150.53 417.54487 150.53 413.54487 
L 150.53 396.84412 
Q 150.53 392.84412 146.53 392.84412 
L 7.2 392.84412 
Q 3.2 392.84412 3.2 396.84412 
L 3.2 413.54487 
Q 3.2 417.54487 7.2 417.54487 
z
" style="fill: #ffff00; opacity: 0.1; stroke: #000000; stroke-linejoin: miter"/>
    </g>
    <!-- Mediterranean Sailing Competition -->
    <g transform="translate(7.2 402.92287) scale(0.08 -0.08)">
     <defs>
      <path id="DejaVuSans-4d" d="M 628 4666 
L 1569 4666 
L 2759 1491 
L 3956 4666 
L 4897 4666 
L 4897 0 
L 4281 0 
L 4281 4097 
L 3078 897 
L 2444 897 
L 1241 4097 
L 1241 0 
L 628 0 
L 628 4666 
z
" transform="scale(0.015625)"/>
      <path id="DejaVuSans-67" d="M 2906 1791 
Q 2906 2416 2648 2759 
Q 2391 3103 1925 3103 
Q 1463 3103 1205 2759 
Q 947 2416 947 1791 
Q 947 1169 1205 825 
Q 1463 481 1925 481 
Q 2391 481 2648 825 
Q 2906 1169 2906 1791 
z
M 3481 434 
Q 3481 -459 3084 -895 
Q 2688 -1331 1869 -1331 
Q 1566 -1331 1297 -1286 
Q 1028 -1241 775 -1147 
L 775 -588 
Q 1028 -725 1275 -790 
Q 1522 -856 1778 -856 
Q 2344 -856 2625 -561 
Q 2906 -266 2906 331 
L 2906 616 
Q 2728 306 2450 153 
Q 2172 0 1784 0 
Q 1141 0 747 490 
Q 353 981 353 1791 
Q 353 2603 747 3093 
Q 1141 3584 1784 3584 
Q 2172 3584 2450 3431 
Q 2728 3278 2906 2969 
L 2906 3500 
L 3481 3500 
L 3481 434 
z
" transform="scale(0.015625)"/>
     </defs>
     <use xlink:href="#DejaVuSans-4d"/>
     <use xlink:href="#DejaVuSans-65" x="86.279297"/>
     <use xlink:href="#DejaVuSans-64" x="147.802734"/>
     <use xlink:href="#DejaVuSans-69" x="211.279297"/>
     <use xlink:href="#DejaVuSans-74" x="239.0625"/>
     <use xlink:href="#DejaVuSans-65" x="278.271484"/>
     <use xlink:href="#DejaVuSans-72" x="339.794922"/>
     <use xlink:href="#DejaVuSans-72" x="379.158203"/>
     <use xlink:href="#DejaVuSans-61" x="420.271484"/>
     <use xlink:href="#DejaVuSans-6e" x="481.550781"/>
     <use xlink:href="#DejaVuSans-65" x="544.929688"/>
     <use xlink:href="#DejaVuSans-61" x="606.453125"/>
     <use xlink:href="#DejaVuSans-6e" x="667.732422"/>
     <use xlink:href="#DejaVuSans-20" x="731.111328"/>
     <use xlink:href="#DejaVuSans-53" x="762.898438"/>
     <use xlink:href="#DejaVuSans-61" x="826.375"/>
     <use xlink:href="#DejaVuSans-69" x="887.654297"/>
     <use xlink:href="#DejaVuSans-6c" x="915.4375"/>
     <use xlink:href="#DejaVuSans-69" x="943.220703"/>
     <use xlink:href="#DejaVuSans-6e" x="971.003906"/>
     <use xlink:href="#DejaVuSans-67" x="1034.382812"/>
     <use xlink:href="#DejaVuSans-20" x="1097.859375"/>
     <use xlink:href="#DejaVuSans-43" x="1129.646484"/>
     <use xlink:href="#DejaVuSans-6f" x="1199.470703"/>
     <use xlink:href="#DejaVuSans-6d" x="1260.652344"/>
     <use xlink:href="#DejaVuSans-70" x="1358.064453"/>
     <use xlink:href="#DejaVuSans-65" x="1421.541016"/>
     <use xlink:href="#DejaVuSans-74" x="1483.064453"/>
     <use xlink:href="#DejaVuSans-69" x="1522.273438"/>
     <use xlink:href="#DejaVuSans-74" x="1550.056641"/>
     <use xlink:href="#DejaVuSans-69" x="1589.265625"/>
     <use xlink:href="#DejaVuSans-6f" x="1617.048828"/>
     <use xlink:href="#DejaVuSans-6e" x="1678.230469"/>
    </g>
    <!-- leads to French Victory -->
    <g transform="translate(55.0175 411.88112) scale(0.08 -0.08)">
     <use xlink:href="#DejaVuSans-6c"/>
     <use xlink:href="#DejaVuSans-65" x="27.783203"/>
     <use xlink:href="#DejaVuSans-61" x="89.306641"/>
     <use xlink:href="#DejaVuSans-64" x="150.585938"/>
     <use xlink:href="#DejaVuSans-73" x="214.0625"/>
     <use xlink:href="#DejaVuSans-20" x="266.162109"/>
     <use xlink:href="#DejaVuSans-74" x="297.949219"/>
     <use xlink:href="#DejaVuSans-6f" x="337.158203"/>
     <use xlink:href="#DejaVuSans-20" x="398.339844"/>
     <use xlink:href="#DejaVuSans-46" x="430.126953"/>
     <use xlink:href="#DejaVuSans-72" x="480.396484"/>
     <use xlink:href="#DejaVuSans-65" x="519.259766"/>
     <use xlink:href="#DejaVuSans-6e" x="580.783203"/>
     <use xlink:href="#DejaVuSans-63" x="644.162109"/>
     <use xlink:href="#DejaVuSans-68" x="699.142578"/>
     <use xlink:href="#DejaVuSans-20" x="762.521484"/>
     <use xlink:href="#DejaVuSans-56" x="794.308594"/>
     <use xlink:href="#DejaVuSans-69" x="860.466797"/>
     <use xlink:href="#DejaVuSans-63" x="888.25"/>
     <use xlink:href="#DejaVuSans-74" x="943.230469"/>
     <use xlink:href="#DejaVuSans-6f" x="982.439453"/>
     <use xlink:href="#DejaVuSans-72" x="1043.621094"/>
     <use xlink:href="#DejaVuSans-79" x="1084.734375"/>
    </g>
   </g>
   <g id="text_21">
    <g id="patch_9">
     <path d="M 25.437587 252.603285 
L 244.728837 252.603285 
Q 248.728837 252.603285 248.728837 248.603285 
L 248.728837 240.860785 
Q 248.728837 236.860785 244.728837 236.860785 
L 25.437587 236.860785 
Q 21.437587 236.860785 21.437587 240.860785 
L 21.437587 248.603285 
Q 21.437587 252.603285 25.437587 252.603285 
z
" style="fill: #ffff00; opacity: 0.1; stroke: #000000; stroke-linejoin: miter"/>
    </g>
    <!-- Olympic Committee Adds Breakdancing as 2024 Event -->
    <g transform="translate(25.437587 246.939535) scale(0.08 -0.08)">
     <defs>
      <path id="DejaVuSans-41" d="M 2188 4044 
L 1331 1722 
L 3047 1722 
L 2188 4044 
z
M 1831 4666 
L 2547 4666 
L 4325 0 
L 3669 0 
L 3244 1197 
L 1141 1197 
L 716 0 
L 50 0 
L 1831 4666 
z
" transform="scale(0.015625)"/>
      <path id="DejaVuSans-42" d="M 1259 2228 
L 1259 519 
L 2272 519 
Q 2781 519 3026 730 
Q 3272 941 3272 1375 
Q 3272 1813 3026 2020 
Q 2781 2228 2272 2228 
L 1259 2228 
z
M 1259 4147 
L 1259 2741 
L 2194 2741 
Q 2656 2741 2882 2914 
Q 3109 3088 3109 3444 
Q 3109 3797 2882 3972 
Q 2656 4147 2194 4147 
L 1259 4147 
z
M 628 4666 
L 2241 4666 
Q 2963 4666 3353 4366 
Q 3744 4066 3744 3513 
Q 3744 3084 3544 2831 
Q 3344 2578 2956 2516 
Q 3422 2416 3680 2098 
Q 3938 1781 3938 1306 
Q 3938 681 3513 340 
Q 3088 0 2303 0 
L 628 0 
L 628 4666 
z
" transform="scale(0.015625)"/>
      <path id="DejaVuSans-34" d="M 2419 4116 
L 825 1625 
L 2419 1625 
L 2419 4116 
z
M 2253 4666 
L 3047 4666 
L 3047 1625 
L 3713 1625 
L 3713 1100 
L 3047 1100 
L 3047 0 
L 2419 0 
L 2419 1100 
L 313 1100 
L 313 1709 
L 2253 4666 
z
" transform="scale(0.015625)"/>
      <path id="DejaVuSans-45" d="M 628 4666 
L 3578 4666 
L 3578 4134 
L 1259 4134 
L 1259 2753 
L 3481 2753 
L 3481 2222 
L 1259 2222 
L 1259 531 
L 3634 531 
L 3634 0 
L 628 0 
L 628 4666 
z
" transform="scale(0.015625)"/>
     </defs>
     <use xlink:href="#DejaVuSans-4f"/>
     <use xlink:href="#DejaVuSans-6c" x="78.710938"/>
     <use xlink:href="#DejaVuSans-79" x="106.494141"/>
     <use xlink:href="#DejaVuSans-6d" x="165.673828"/>
     <use xlink:href="#DejaVuSans-70" x="263.085938"/>
     <use xlink:href="#DejaVuSans-69" x="326.5625"/>
     <use xlink:href="#DejaVuSans-63" x="354.345703"/>
     <use xlink:href="#DejaVuSans-20" x="409.326172"/>
     <use xlink:href="#DejaVuSans-43" x="441.113281"/>
     <use xlink:href="#DejaVuSans-6f" x="510.9375"/>
     <use xlink:href="#DejaVuSans-6d" x="572.119141"/>
     <use xlink:href="#DejaVuSans-6d" x="669.53125"/>
     <use xlink:href="#DejaVuSans-69" x="766.943359"/>
     <use xlink:href="#DejaVuSans-74" x="794.726562"/>
     <use xlink:href="#DejaVuSans-74" x="833.935547"/>
     <use xlink:href="#DejaVuSans-65" x="873.144531"/>
     <use xlink:href="#DejaVuSans-65" x="934.667969"/>
     <use xlink:href="#DejaVuSans-20" x="996.191406"/>
     <use xlink:href="#DejaVuSans-41" x="1027.978516"/>
     <use xlink:href="#DejaVuSans-64" x="1094.636719"/>
     <use xlink:href="#DejaVuSans-64" x="1158.113281"/>
     <use xlink:href="#DejaVuSans-73" x="1221.589844"/>
     <use xlink:href="#DejaVuSans-20" x="1273.689453"/>
     <use xlink:href="#DejaVuSans-42" x="1305.476562"/>
     <use xlink:href="#DejaVuSans-72" x="1374.080078"/>
     <use xlink:href="#DejaVuSans-65" x="1412.943359"/>
     <use xlink:href="#DejaVuSans-61" x="1474.466797"/>
     <use xlink:href="#DejaVuSans-6b" x="1535.746094"/>
     <use xlink:href="#DejaVuSans-64" x="1593.65625"/>
     <use xlink:href="#DejaVuSans-61" x="1657.132812"/>
     <use xlink:href="#DejaVuSans-6e" x="1718.412109"/>
     <use xlink:href="#DejaVuSans-63" x="1781.791016"/>
     <use xlink:href="#DejaVuSans-69" x="1836.771484"/>
     <use xlink:href="#DejaVuSans-6e" x="1864.554688"/>
     <use xlink:href="#DejaVuSans-67" x="1927.933594"/>
     <use xlink:href="#DejaVuSans-20" x="1991.410156"/>
     <use xlink:href="#DejaVuSans-61" x="2023.197266"/>
     <use xlink:href="#DejaVuSans-73" x="2084.476562"/>
     <use xlink:href="#DejaVuSans-20" x="2136.576172"/>
     <use xlink:href="#DejaVuSans-32" x="2168.363281"/>
     <use xlink:href="#DejaVuSans-30" x="2231.986328"/>
     <use xlink:href="#DejaVuSans-32" x="2295.609375"/>
     <use xlink:href="#DejaVuSans-34" x="2359.232422"/>
     <use xlink:href="#DejaVuSans-20" x="2422.855469"/>
     <use xlink:href="#DejaVuSans-45" x="2454.642578"/>
     <use xlink:href="#DejaVuSans-76" x="2517.826172"/>
     <use xlink:href="#DejaVuSans-65" x="2577.005859"/>
     <use xlink:href="#DejaVuSans-6e" x="2638.529297"/>
     <use xlink:href="#DejaVuSans-74" x="2701.908203"/>
    </g>
   </g>
   <g id="text_22">
    <g id="patch_10">
     <path d="M 351.715718 328.686776 
L 507.214468 328.686776 
Q 511.214468 328.686776 511.214468 324.686776 
L 511.214468 316.944276 
Q 511.214468 312.944276 507.214468 312.944276 
L 351.715718 312.944276 
Q 347.715718 312.944276 347.715718 316.944276 
L 347.715718 324.686776 
Q 347.715718 328.686776 351.715718 328.686776 
z
" style="fill: #ffff00; opacity: 0.1; stroke: #000000; stroke-linejoin: miter"/>
    </g>
    <!-- Hurricane Ian Makes Landfall in Florida -->
    <g transform="translate(351.715718 323.023026) scale(0.08 -0.08)">
     <defs>
      <path id="DejaVuSans-48" d="M 628 4666 
L 1259 4666 
L 1259 2753 
L 3553 2753 
L 3553 4666 
L 4184 4666 
L 4184 0 
L 3553 0 
L 3553 2222 
L 1259 2222 
L 1259 0 
L 628 0 
L 628 4666 
z
" transform="scale(0.015625)"/>
      <path id="DejaVuSans-75" d="M 544 1381 
L 544 3500 
L 1119 3500 
L 1119 1403 
Q 1119 906 1312 657 
Q 1506 409 1894 409 
Q 2359 409 2629 706 
Q 2900 1003 2900 1516 
L 2900 3500 
L 3475 3500 
L 3475 0 
L 2900 0 
L 2900 538 
Q 2691 219 2414 64 
Q 2138 -91 1772 -91 
Q 1169 -91 856 284 
Q 544 659 544 1381 
z
M 1991 3584 
L 1991 3584 
z
" transform="scale(0.015625)"/>
      <path id="DejaVuSans-49" d="M 628 4666 
L 1259 4666 
L 1259 0 
L 628 0 
L 628 4666 
z
" transform="scale(0.015625)"/>
     </defs>
     <use xlink:href="#DejaVuSans-48"/>
     <use xlink:href="#DejaVuSans-75" x="75.195312"/>
     <use xlink:href="#DejaVuSans-72" x="138.574219"/>
     <use xlink:href="#DejaVuSans-72" x="177.9375"/>
     <use xlink:href="#DejaVuSans-69" x="219.050781"/>
     <use xlink:href="#DejaVuSans-63" x="246.833984"/>
     <use xlink:href="#DejaVuSans-61" x="301.814453"/>
     <use xlink:href="#DejaVuSans-6e" x="363.09375"/>
     <use xlink:href="#DejaVuSans-65" x="426.472656"/>
     <use xlink:href="#DejaVuSans-20" x="487.996094"/>
     <use xlink:href="#DejaVuSans-49" x="519.783203"/>
     <use xlink:href="#DejaVuSans-61" x="549.275391"/>
     <use xlink:href="#DejaVuSans-6e" x="610.554688"/>
     <use xlink:href="#DejaVuSans-20" x="673.933594"/>
     <use xlink:href="#DejaVuSans-4d" x="705.720703"/>
     <use xlink:href="#DejaVuSans-61" x="792"/>
     <use xlink:href="#DejaVuSans-6b" x="853.279297"/>
     <use xlink:href="#DejaVuSans-65" x="907.564453"/>
     <use xlink:href="#DejaVuSans-73" x="969.087891"/>
     <use xlink:href="#DejaVuSans-20" x="1021.1875"/>
     <use xlink:href="#DejaVuSans-4c" x="1052.974609"/>
     <use xlink:href="#DejaVuSans-61" x="1108.6875"/>
     <use xlink:href="#DejaVuSans-6e" x="1169.966797"/>
     <use xlink:href="#DejaVuSans-64" x="1233.345703"/>
     <use xlink:href="#DejaVuSans-66" x="1296.822266"/>
     <use xlink:href="#DejaVuSans-61" x="1332.027344"/>
     <use xlink:href="#DejaVuSans-6c" x="1393.306641"/>
     <use xlink:href="#DejaVuSans-6c" x="1421.089844"/>
     <use xlink:href="#DejaVuSans-20" x="1448.873047"/>
     <use xlink:href="#DejaVuSans-69" x="1480.660156"/>
     <use xlink:href="#DejaVuSans-6e" x="1508.443359"/>
     <use xlink:href="#DejaVuSans-20" x="1571.822266"/>
     <use xlink:href="#DejaVuSans-46" x="1603.609375"/>
     <use xlink:href="#DejaVuSans-6c" x="1661.128906"/>
     <use xlink:href="#DejaVuSans-6f" x="1688.912109"/>
     <use xlink:href="#DejaVuSans-72" x="1750.09375"/>
     <use xlink:href="#DejaVuSans-69" x="1791.207031"/>
     <use xlink:href="#DejaVuSans-64" x="1818.990234"/>
     <use xlink:href="#DejaVuSans-61" x="1882.466797"/>
    </g>
   </g>
   <g id="text_23">
    <g id="patch_11">
     <path d="M 214.189722 118.319767 
L 415.017222 118.319767 
Q 419.017222 118.319767 419.017222 114.319767 
L 419.017222 106.577267 
Q 419.017222 102.577267 415.017222 102.577267 
L 214.189722 102.577267 
Q 210.189722 102.577267 210.189722 106.577267 
L 210.189722 114.319767 
Q 210.189722 118.319767 214.189722 118.319767 
z
" style="fill: #ffff00; opacity: 0.1; stroke: #000000; stroke-linejoin: miter"/>
    </g>
    <!-- Record-Breaking Heatwave Sweeps Across Europe -->
    <g transform="translate(214.189722 112.656017) scale(0.08 -0.08)">
     <defs>
      <path id="DejaVuSans-52" d="M 2841 2188 
Q 3044 2119 3236 1894 
Q 3428 1669 3622 1275 
L 4263 0 
L 3584 0 
L 2988 1197 
Q 2756 1666 2539 1819 
Q 2322 1972 1947 1972 
L 1259 1972 
L 1259 0 
L 628 0 
L 628 4666 
L 2053 4666 
Q 2853 4666 3247 4331 
Q 3641 3997 3641 3322 
Q 3641 2881 3436 2590 
Q 3231 2300 2841 2188 
z
M 1259 4147 
L 1259 2491 
L 2053 2491 
Q 2509 2491 2742 2702 
Q 2975 2913 2975 3322 
Q 2975 3731 2742 3939 
Q 2509 4147 2053 4147 
L 1259 4147 
z
" transform="scale(0.015625)"/>
      <path id="DejaVuSans-2d" d="M 313 2009 
L 1997 2009 
L 1997 1497 
L 313 1497 
L 313 2009 
z
" transform="scale(0.015625)"/>
     </defs>
     <use xlink:href="#DejaVuSans-52"/>
     <use xlink:href="#DejaVuSans-65" x="64.982422"/>
     <use xlink:href="#DejaVuSans-63" x="126.505859"/>
     <use xlink:href="#DejaVuSans-6f" x="181.486328"/>
     <use xlink:href="#DejaVuSans-72" x="242.667969"/>
     <use xlink:href="#DejaVuSans-64" x="282.03125"/>
     <use xlink:href="#DejaVuSans-2d" x="345.507812"/>
     <use xlink:href="#DejaVuSans-42" x="377.966797"/>
     <use xlink:href="#DejaVuSans-72" x="446.570312"/>
     <use xlink:href="#DejaVuSans-65" x="485.433594"/>
     <use xlink:href="#DejaVuSans-61" x="546.957031"/>
     <use xlink:href="#DejaVuSans-6b" x="608.236328"/>
     <use xlink:href="#DejaVuSans-69" x="666.146484"/>
     <use xlink:href="#DejaVuSans-6e" x="693.929688"/>
     <use xlink:href="#DejaVuSans-67" x="757.308594"/>
     <use xlink:href="#DejaVuSans-20" x="820.785156"/>
     <use xlink:href="#DejaVuSans-48" x="852.572266"/>
     <use xlink:href="#DejaVuSans-65" x="927.767578"/>
     <use xlink:href="#DejaVuSans-61" x="989.291016"/>
     <use xlink:href="#DejaVuSans-74" x="1050.570312"/>
     <use xlink:href="#DejaVuSans-77" x="1089.779297"/>
     <use xlink:href="#DejaVuSans-61" x="1171.566406"/>
     <use xlink:href="#DejaVuSans-76" x="1232.845703"/>
     <use xlink:href="#DejaVuSans-65" x="1292.025391"/>
     <use xlink:href="#DejaVuSans-20" x="1353.548828"/>
     <use xlink:href="#DejaVuSans-53" x="1385.335938"/>
     <use xlink:href="#DejaVuSans-77" x="1448.8125"/>
     <use xlink:href="#DejaVuSans-65" x="1530.599609"/>
     <use xlink:href="#DejaVuSans-65" x="1592.123047"/>
     <use xlink:href="#DejaVuSans-70" x="1653.646484"/>
     <use xlink:href="#DejaVuSans-73" x="1717.123047"/>
     <use xlink:href="#DejaVuSans-20" x="1769.222656"/>
     <use xlink:href="#DejaVuSans-41" x="1801.009766"/>
     <use xlink:href="#DejaVuSans-63" x="1867.667969"/>
     <use xlink:href="#DejaVuSans-72" x="1922.648438"/>
     <use xlink:href="#DejaVuSans-6f" x="1961.511719"/>
     <use xlink:href="#DejaVuSans-73" x="2022.693359"/>
     <use xlink:href="#DejaVuSans-73" x="2074.792969"/>
     <use xlink:href="#DejaVuSans-20" x="2126.892578"/>
     <use xlink:href="#DejaVuSans-45" x="2158.679688"/>
     <use xlink:href="#DejaVuSans-75" x="2221.863281"/>
     <use xlink:href="#DejaVuSans-72" x="2285.242188"/>
     <use xlink:href="#DejaVuSans-6f" x="2324.105469"/>
     <use xlink:href="#DejaVuSans-70" x="2385.287109"/>
     <use xlink:href="#DejaVuSans-65" x="2448.763672"/>
    </g>
   </g>
   <g id="text_24">
    <g id="patch_12">
     <path d="M 57.830609 274.394029 
L 236.510609 274.394029 
Q 240.510609 274.394029 240.510609 270.394029 
L 240.510609 262.651529 
Q 240.510609 258.651529 236.510609 258.651529 
L 57.830609 258.651529 
Q 53.830609 258.651529 53.830609 262.651529 
L 53.830609 270.394029 
Q 53.830609 274.394029 57.830609 274.394029 
z
" style="fill: #ffff00; opacity: 0.1; stroke: #000000; stroke-linejoin: miter"/>
    </g>
    <!-- Blizzard Warning Issued for Northeast States -->
    <g transform="translate(57.830609 268.730279) scale(0.08 -0.08)">
     <defs>
      <path id="DejaVuSans-7a" d="M 353 3500 
L 3084 3500 
L 3084 2975 
L 922 459 
L 3084 459 
L 3084 0 
L 275 0 
L 275 525 
L 2438 3041 
L 353 3041 
L 353 3500 
z
" transform="scale(0.015625)"/>
      <path id="DejaVuSans-57" d="M 213 4666 
L 850 4666 
L 1831 722 
L 2809 4666 
L 3519 4666 
L 4500 722 
L 5478 4666 
L 6119 4666 
L 4947 0 
L 4153 0 
L 3169 4050 
L 2175 0 
L 1381 0 
L 213 4666 
z
" transform="scale(0.015625)"/>
      <path id="DejaVuSans-4e" d="M 628 4666 
L 1478 4666 
L 3547 763 
L 3547 4666 
L 4159 4666 
L 4159 0 
L 3309 0 
L 1241 3903 
L 1241 0 
L 628 0 
L 628 4666 
z
" transform="scale(0.015625)"/>
     </defs>
     <use xlink:href="#DejaVuSans-42"/>
     <use xlink:href="#DejaVuSans-6c" x="68.603516"/>
     <use xlink:href="#DejaVuSans-69" x="96.386719"/>
     <use xlink:href="#DejaVuSans-7a" x="124.169922"/>
     <use xlink:href="#DejaVuSans-7a" x="176.660156"/>
     <use xlink:href="#DejaVuSans-61" x="229.150391"/>
     <use xlink:href="#DejaVuSans-72" x="290.429688"/>
     <use xlink:href="#DejaVuSans-64" x="329.792969"/>
     <use xlink:href="#DejaVuSans-20" x="393.269531"/>
     <use xlink:href="#DejaVuSans-57" x="425.056641"/>
     <use xlink:href="#DejaVuSans-61" x="517.558594"/>
     <use xlink:href="#DejaVuSans-72" x="578.837891"/>
     <use xlink:href="#DejaVuSans-6e" x="618.201172"/>
     <use xlink:href="#DejaVuSans-69" x="681.580078"/>
     <use xlink:href="#DejaVuSans-6e" x="709.363281"/>
     <use xlink:href="#DejaVuSans-67" x="772.742188"/>
     <use xlink:href="#DejaVuSans-20" x="836.21875"/>
     <use xlink:href="#DejaVuSans-49" x="868.005859"/>
     <use xlink:href="#DejaVuSans-73" x="897.498047"/>
     <use xlink:href="#DejaVuSans-73" x="949.597656"/>
     <use xlink:href="#DejaVuSans-75" x="1001.697266"/>
     <use xlink:href="#DejaVuSans-65" x="1065.076172"/>
     <use xlink:href="#DejaVuSans-64" x="1126.599609"/>
     <use xlink:href="#DejaVuSans-20" x="1190.076172"/>
     <use xlink:href="#DejaVuSans-66" x="1221.863281"/>
     <use xlink:href="#DejaVuSans-6f" x="1257.068359"/>
     <use xlink:href="#DejaVuSans-72" x="1318.25"/>
     <use xlink:href="#DejaVuSans-20" x="1359.363281"/>
     <use xlink:href="#DejaVuSans-4e" x="1391.150391"/>
     <use xlink:href="#DejaVuSans-6f" x="1465.955078"/>
     <use xlink:href="#DejaVuSans-72" x="1527.136719"/>
     <use xlink:href="#DejaVuSans-74" x="1568.25"/>
     <use xlink:href="#DejaVuSans-68" x="1607.458984"/>
     <use xlink:href="#DejaVuSans-65" x="1670.837891"/>
     <use xlink:href="#DejaVuSans-61" x="1732.361328"/>
     <use xlink:href="#DejaVuSans-73" x="1793.640625"/>
     <use xlink:href="#DejaVuSans-74" x="1845.740234"/>
     <use xlink:href="#DejaVuSans-20" x="1884.949219"/>
     <use xlink:href="#DejaVuSans-53" x="1916.736328"/>
     <use xlink:href="#DejaVuSans-74" x="1980.212891"/>
     <use xlink:href="#DejaVuSans-61" x="2019.421875"/>
     <use xlink:href="#DejaVuSans-74" x="2080.701172"/>
     <use xlink:href="#DejaVuSans-65" x="2119.910156"/>
     <use xlink:href="#DejaVuSans-73" x="2181.433594"/>
    </g>
   </g>
   <g id="text_25">
    <g id="patch_13">
     <path d="M 19.02479 389.408074 
L 217.45354 389.408074 
Q 221.45354 389.408074 221.45354 385.408074 
L 221.45354 377.665574 
Q 221.45354 373.665574 217.45354 373.665574 
L 19.02479 373.665574 
Q 15.02479 373.665574 15.02479 377.665574 
L 15.02479 385.408074 
Q 15.02479 389.408074 19.02479 389.408074 
z
" style="fill: #ffff00; opacity: 0.1; stroke: #000000; stroke-linejoin: miter"/>
    </g>
    <!-- New Study Links Mediterranean Diet to Longevity -->
    <g transform="translate(19.02479 383.744324) scale(0.08 -0.08)">
     <defs>
      <path id="DejaVuSans-44" d="M 1259 4147 
L 1259 519 
L 2022 519 
Q 2988 519 3436 956 
Q 3884 1394 3884 2338 
Q 3884 3275 3436 3711 
Q 2988 4147 2022 4147 
L 1259 4147 
z
M 628 4666 
L 1925 4666 
Q 3281 4666 3915 4102 
Q 4550 3538 4550 2338 
Q 4550 1131 3912 565 
Q 3275 0 1925 0 
L 628 0 
L 628 4666 
z
" transform="scale(0.015625)"/>
     </defs>
     <use xlink:href="#DejaVuSans-4e"/>
     <use xlink:href="#DejaVuSans-65" x="74.804688"/>
     <use xlink:href="#DejaVuSans-77" x="136.328125"/>
     <use xlink:href="#DejaVuSans-20" x="218.115234"/>
     <use xlink:href="#DejaVuSans-53" x="249.902344"/>
     <use xlink:href="#DejaVuSans-74" x="313.378906"/>
     <use xlink:href="#DejaVuSans-75" x="352.587891"/>
     <use xlink:href="#DejaVuSans-64" x="415.966797"/>
     <use xlink:href="#DejaVuSans-79" x="479.443359"/>
     <use xlink:href="#DejaVuSans-20" x="538.623047"/>
     <use xlink:href="#DejaVuSans-4c" x="570.410156"/>
     <use xlink:href="#DejaVuSans-69" x="626.123047"/>
     <use xlink:href="#DejaVuSans-6e" x="653.90625"/>
     <use xlink:href="#DejaVuSans-6b" x="717.285156"/>
     <use xlink:href="#DejaVuSans-73" x="775.195312"/>
     <use xlink:href="#DejaVuSans-20" x="827.294922"/>
     <use xlink:href="#DejaVuSans-4d" x="859.082031"/>
     <use xlink:href="#DejaVuSans-65" x="945.361328"/>
     <use xlink:href="#DejaVuSans-64" x="1006.884766"/>
     <use xlink:href="#DejaVuSans-69" x="1070.361328"/>
     <use xlink:href="#DejaVuSans-74" x="1098.144531"/>
     <use xlink:href="#DejaVuSans-65" x="1137.353516"/>
     <use xlink:href="#DejaVuSans-72" x="1198.876953"/>
     <use xlink:href="#DejaVuSans-72" x="1238.240234"/>
     <use xlink:href="#DejaVuSans-61" x="1279.353516"/>
     <use xlink:href="#DejaVuSans-6e" x="1340.632812"/>
     <use xlink:href="#DejaVuSans-65" x="1404.011719"/>
     <use xlink:href="#DejaVuSans-61" x="1465.535156"/>
     <use xlink:href="#DejaVuSans-6e" x="1526.814453"/>
     <use xlink:href="#DejaVuSans-20" x="1590.193359"/>
     <use xlink:href="#DejaVuSans-44" x="1621.980469"/>
     <use xlink:href="#DejaVuSans-69" x="1698.982422"/>
     <use xlink:href="#DejaVuSans-65" x="1726.765625"/>
     <use xlink:href="#DejaVuSans-74" x="1788.289062"/>
     <use xlink:href="#DejaVuSans-20" x="1827.498047"/>
     <use xlink:href="#DejaVuSans-74" x="1859.285156"/>
     <use xlink:href="#DejaVuSans-6f" x="1898.494141"/>
     <use xlink:href="#DejaVuSans-20" x="1959.675781"/>
     <use xlink:href="#DejaVuSans-4c" x="1991.462891"/>
     <use xlink:href="#DejaVuSans-6f" x="2045.425781"/>
     <use xlink:href="#DejaVuSans-6e" x="2106.607422"/>
     <use xlink:href="#DejaVuSans-67" x="2169.986328"/>
     <use xlink:href="#DejaVuSans-65" x="2233.462891"/>
     <use xlink:href="#DejaVuSans-76" x="2294.986328"/>
     <use xlink:href="#DejaVuSans-69" x="2354.166016"/>
     <use xlink:href="#DejaVuSans-74" x="2381.949219"/>
     <use xlink:href="#DejaVuSans-79" x="2421.158203"/>
    </g>
   </g>
   <g id="text_26">
    <g id="patch_14">
     <path d="M 281.369603 44.478125 
L 478.502103 44.478125 
Q 482.502103 44.478125 482.502103 40.478125 
L 482.502103 32.735625 
Q 482.502103 28.735625 478.502103 28.735625 
L 281.369603 28.735625 
Q 277.369603 28.735625 277.369603 32.735625 
L 277.369603 40.478125 
Q 277.369603 44.478125 281.369603 44.478125 
z
" style="fill: #ffff00; opacity: 0.1; stroke: #000000; stroke-linejoin: miter"/>
    </g>
    <!-- Michelin Guide Adds Five New 3-Star Restaurants -->
    <g transform="translate(281.369603 38.814375) scale(0.08 -0.08)">
     <defs>
      <path id="DejaVuSans-47" d="M 3809 666 
L 3809 1919 
L 2778 1919 
L 2778 2438 
L 4434 2438 
L 4434 434 
Q 4069 175 3628 42 
Q 3188 -91 2688 -91 
Q 1594 -91 976 548 
Q 359 1188 359 2328 
Q 359 3472 976 4111 
Q 1594 4750 2688 4750 
Q 3144 4750 3555 4637 
Q 3966 4525 4313 4306 
L 4313 3634 
Q 3963 3931 3569 4081 
Q 3175 4231 2741 4231 
Q 1884 4231 1454 3753 
Q 1025 3275 1025 2328 
Q 1025 1384 1454 906 
Q 1884 428 2741 428 
Q 3075 428 3337 486 
Q 3600 544 3809 666 
z
" transform="scale(0.015625)"/>
      <path id="DejaVuSans-33" d="M 2597 2516 
Q 3050 2419 3304 2112 
Q 3559 1806 3559 1356 
Q 3559 666 3084 287 
Q 2609 -91 1734 -91 
Q 1441 -91 1130 -33 
Q 819 25 488 141 
L 488 750 
Q 750 597 1062 519 
Q 1375 441 1716 441 
Q 2309 441 2620 675 
Q 2931 909 2931 1356 
Q 2931 1769 2642 2001 
Q 2353 2234 1838 2234 
L 1294 2234 
L 1294 2753 
L 1863 2753 
Q 2328 2753 2575 2939 
Q 2822 3125 2822 3475 
Q 2822 3834 2567 4026 
Q 2313 4219 1838 4219 
Q 1578 4219 1281 4162 
Q 984 4106 628 3988 
L 628 4550 
Q 988 4650 1302 4700 
Q 1616 4750 1894 4750 
Q 2613 4750 3031 4423 
Q 3450 4097 3450 3541 
Q 3450 3153 3228 2886 
Q 3006 2619 2597 2516 
z
" transform="scale(0.015625)"/>
     </defs>
     <use xlink:href="#DejaVuSans-4d"/>
     <use xlink:href="#DejaVuSans-69" x="86.279297"/>
     <use xlink:href="#DejaVuSans-63" x="114.0625"/>
     <use xlink:href="#DejaVuSans-68" x="169.042969"/>
     <use xlink:href="#DejaVuSans-65" x="232.421875"/>
     <use xlink:href="#DejaVuSans-6c" x="293.945312"/>
     <use xlink:href="#DejaVuSans-69" x="321.728516"/>
     <use xlink:href="#DejaVuSans-6e" x="349.511719"/>
     <use xlink:href="#DejaVuSans-20" x="412.890625"/>
     <use xlink:href="#DejaVuSans-47" x="444.677734"/>
     <use xlink:href="#DejaVuSans-75" x="522.167969"/>
     <use xlink:href="#DejaVuSans-69" x="585.546875"/>
     <use xlink:href="#DejaVuSans-64" x="613.330078"/>
     <use xlink:href="#DejaVuSans-65" x="676.806641"/>
     <use xlink:href="#DejaVuSans-20" x="738.330078"/>
     <use xlink:href="#DejaVuSans-41" x="770.117188"/>
     <use xlink:href="#DejaVuSans-64" x="836.775391"/>
     <use xlink:href="#DejaVuSans-64" x="900.251953"/>
     <use xlink:href="#DejaVuSans-73" x="963.728516"/>
     <use xlink:href="#DejaVuSans-20" x="1015.828125"/>
     <use xlink:href="#DejaVuSans-46" x="1047.615234"/>
     <use xlink:href="#DejaVuSans-69" x="1097.884766"/>
     <use xlink:href="#DejaVuSans-76" x="1125.667969"/>
     <use xlink:href="#DejaVuSans-65" x="1184.847656"/>
     <use xlink:href="#DejaVuSans-20" x="1246.371094"/>
     <use xlink:href="#DejaVuSans-4e" x="1278.158203"/>
     <use xlink:href="#DejaVuSans-65" x="1352.962891"/>
     <use xlink:href="#DejaVuSans-77" x="1414.486328"/>
     <use xlink:href="#DejaVuSans-20" x="1496.273438"/>
     <use xlink:href="#DejaVuSans-33" x="1528.060547"/>
     <use xlink:href="#DejaVuSans-2d" x="1591.683594"/>
     <use xlink:href="#DejaVuSans-53" x="1627.767578"/>
     <use xlink:href="#DejaVuSans-74" x="1691.244141"/>
     <use xlink:href="#DejaVuSans-61" x="1730.453125"/>
     <use xlink:href="#DejaVuSans-72" x="1791.732422"/>
     <use xlink:href="#DejaVuSans-20" x="1832.845703"/>
     <use xlink:href="#DejaVuSans-52" x="1864.632812"/>
     <use xlink:href="#DejaVuSans-65" x="1929.615234"/>
     <use xlink:href="#DejaVuSans-73" x="1991.138672"/>
     <use xlink:href="#DejaVuSans-74" x="2043.238281"/>
     <use xlink:href="#DejaVuSans-61" x="2082.447266"/>
     <use xlink:href="#DejaVuSans-75" x="2143.726562"/>
     <use xlink:href="#DejaVuSans-72" x="2207.105469"/>
     <use xlink:href="#DejaVuSans-61" x="2248.21875"/>
     <use xlink:href="#DejaVuSans-6e" x="2309.498047"/>
     <use xlink:href="#DejaVuSans-74" x="2372.876953"/>
     <use xlink:href="#DejaVuSans-73" x="2412.085938"/>
    </g>
   </g>
   <g id="text_27">
    <g id="patch_15">
     <path d="M 671.498523 447.678125 
L 755.257273 447.678125 
Q 759.257273 447.678125 759.257273 443.678125 
L 759.257273 435.935625 
Q 759.257273 431.935625 755.257273 431.935625 
L 671.498523 431.935625 
Q 667.498523 431.935625 667.498523 435.935625 
L 667.498523 443.678125 
Q 667.498523 447.678125 671.498523 447.678125 
z
" style="fill: #ffff00; opacity: 0.1; stroke: #000000; stroke-linejoin: miter"/>
    </g>
    <!-- The Best food in NYC -->
    <g transform="translate(671.498523 442.014375) scale(0.08 -0.08)">
     <defs>
      <path id="DejaVuSans-54" d="M -19 4666 
L 3928 4666 
L 3928 4134 
L 2272 4134 
L 2272 0 
L 1638 0 
L 1638 4134 
L -19 4134 
L -19 4666 
z
" transform="scale(0.015625)"/>
      <path id="DejaVuSans-59" d="M -13 4666 
L 666 4666 
L 1959 2747 
L 3244 4666 
L 3922 4666 
L 2272 2222 
L 2272 0 
L 1638 0 
L 1638 2222 
L -13 4666 
z
" transform="scale(0.015625)"/>
     </defs>
     <use xlink:href="#DejaVuSans-54"/>
     <use xlink:href="#DejaVuSans-68" x="61.083984"/>
     <use xlink:href="#DejaVuSans-65" x="124.462891"/>
     <use xlink:href="#DejaVuSans-20" x="185.986328"/>
     <use xlink:href="#DejaVuSans-42" x="217.773438"/>
     <use xlink:href="#DejaVuSans-65" x="286.376953"/>
     <use xlink:href="#DejaVuSans-73" x="347.900391"/>
     <use xlink:href="#DejaVuSans-74" x="400"/>
     <use xlink:href="#DejaVuSans-20" x="439.208984"/>
     <use xlink:href="#DejaVuSans-66" x="470.996094"/>
     <use xlink:href="#DejaVuSans-6f" x="506.201172"/>
     <use xlink:href="#DejaVuSans-6f" x="567.382812"/>
     <use xlink:href="#DejaVuSans-64" x="628.564453"/>
     <use xlink:href="#DejaVuSans-20" x="692.041016"/>
     <use xlink:href="#DejaVuSans-69" x="723.828125"/>
     <use xlink:href="#DejaVuSans-6e" x="751.611328"/>
     <use xlink:href="#DejaVuSans-20" x="814.990234"/>
     <use xlink:href="#DejaVuSans-4e" x="846.777344"/>
     <use xlink:href="#DejaVuSans-59" x="921.582031"/>
     <use xlink:href="#DejaVuSans-43" x="977.166016"/>
    </g>
   </g>
   <g id="text_28">
    <!-- Sentence Embeddings of News Headlines in 2D Space -->
    <g transform="translate(283.412699 16.318125) scale(0.12 -0.12)">
     <defs>
      <path id="DejaVuSans-62" d="M 3116 1747 
Q 3116 2381 2855 2742 
Q 2594 3103 2138 3103 
Q 1681 3103 1420 2742 
Q 1159 2381 1159 1747 
Q 1159 1113 1420 752 
Q 1681 391 2138 391 
Q 2594 391 2855 752 
Q 3116 1113 3116 1747 
z
M 1159 2969 
Q 1341 3281 1617 3432 
Q 1894 3584 2278 3584 
Q 2916 3584 3314 3078 
Q 3713 2572 3713 1747 
Q 3713 922 3314 415 
Q 2916 -91 2278 -91 
Q 1894 -91 1617 61 
Q 1341 213 1159 525 
L 1159 0 
L 581 0 
L 581 4863 
L 1159 4863 
L 1159 2969 
z
" transform="scale(0.015625)"/>
     </defs>
     <use xlink:href="#DejaVuSans-53"/>
     <use xlink:href="#DejaVuSans-65" x="63.476562"/>
     <use xlink:href="#DejaVuSans-6e" x="125"/>
     <use xlink:href="#DejaVuSans-74" x="188.378906"/>
     <use xlink:href="#DejaVuSans-65" x="227.587891"/>
     <use xlink:href="#DejaVuSans-6e" x="289.111328"/>
     <use xlink:href="#DejaVuSans-63" x="352.490234"/>
     <use xlink:href="#DejaVuSans-65" x="407.470703"/>
     <use xlink:href="#DejaVuSans-20" x="468.994141"/>
     <use xlink:href="#DejaVuSans-45" x="500.78125"/>
     <use xlink:href="#DejaVuSans-6d" x="563.964844"/>
     <use xlink:href="#DejaVuSans-62" x="661.376953"/>
     <use xlink:href="#DejaVuSans-65" x="724.853516"/>
     <use xlink:href="#DejaVuSans-64" x="786.376953"/>
     <use xlink:href="#DejaVuSans-64" x="849.853516"/>
     <use xlink:href="#DejaVuSans-69" x="913.330078"/>
     <use xlink:href="#DejaVuSans-6e" x="941.113281"/>
     <use xlink:href="#DejaVuSans-67" x="1004.492188"/>
     <use xlink:href="#DejaVuSans-73" x="1067.96875"/>
     <use xlink:href="#DejaVuSans-20" x="1120.068359"/>
     <use xlink:href="#DejaVuSans-6f" x="1151.855469"/>
     <use xlink:href="#DejaVuSans-66" x="1213.037109"/>
     <use xlink:href="#DejaVuSans-20" x="1248.242188"/>
     <use xlink:href="#DejaVuSans-4e" x="1280.029297"/>
     <use xlink:href="#DejaVuSans-65" x="1354.833984"/>
     <use xlink:href="#DejaVuSans-77" x="1416.357422"/>
     <use xlink:href="#DejaVuSans-73" x="1498.144531"/>
     <use xlink:href="#DejaVuSans-20" x="1550.244141"/>
     <use xlink:href="#DejaVuSans-48" x="1582.03125"/>
     <use xlink:href="#DejaVuSans-65" x="1657.226562"/>
     <use xlink:href="#DejaVuSans-61" x="1718.75"/>
     <use xlink:href="#DejaVuSans-64" x="1780.029297"/>
     <use xlink:href="#DejaVuSans-6c" x="1843.505859"/>
     <use xlink:href="#DejaVuSans-69" x="1871.289062"/>
     <use xlink:href="#DejaVuSans-6e" x="1899.072266"/>
     <use xlink:href="#DejaVuSans-65" x="1962.451172"/>
     <use xlink:href="#DejaVuSans-73" x="2023.974609"/>
     <use xlink:href="#DejaVuSans-20" x="2076.074219"/>
     <use xlink:href="#DejaVuSans-69" x="2107.861328"/>
     <use xlink:href="#DejaVuSans-6e" x="2135.644531"/>
     <use xlink:href="#DejaVuSans-20" x="2199.023438"/>
     <use xlink:href="#DejaVuSans-32" x="2230.810547"/>
     <use xlink:href="#DejaVuSans-44" x="2294.433594"/>
     <use xlink:href="#DejaVuSans-20" x="2371.435547"/>
     <use xlink:href="#DejaVuSans-53" x="2403.222656"/>
     <use xlink:href="#DejaVuSans-70" x="2466.699219"/>
     <use xlink:href="#DejaVuSans-61" x="2530.175781"/>
     <use xlink:href="#DejaVuSans-63" x="2591.455078"/>
     <use xlink:href="#DejaVuSans-65" x="2646.435547"/>
    </g>
   </g>
   <g id="legend_1">
    <g id="patch_16">
     <path d="M 699.590511 74.3525 
L 773.693636 74.3525 
Q 775.693636 74.3525 775.693636 72.3525 
L 775.693636 29.318125 
Q 775.693636 27.318125 773.693636 27.318125 
L 699.590511 27.318125 
Q 697.590511 27.318125 697.590511 29.318125 
L 697.590511 72.3525 
Q 697.590511 74.3525 699.590511 74.3525 
z
" style="fill: #ffffff; opacity: 0.8; stroke: #cccccc; stroke-linejoin: miter"/>
    </g>
    <g id="PathCollection_13">
     <g>
      <use xlink:href="#md42a833c95" x="711.590511" y="36.291562" style="fill: #ff0000; fill-opacity: 0.7; stroke: #ff0000; stroke-opacity: 0.7"/>
     </g>
    </g>
    <g id="text_29">
     <!-- Sports -->
     <g transform="translate(729.590511 38.916562) scale(0.1 -0.1)">
      <use xlink:href="#DejaVuSans-53"/>
      <use xlink:href="#DejaVuSans-70" x="63.476562"/>
      <use xlink:href="#DejaVuSans-6f" x="126.953125"/>
      <use xlink:href="#DejaVuSans-72" x="188.134766"/>
      <use xlink:href="#DejaVuSans-74" x="229.248047"/>
      <use xlink:href="#DejaVuSans-73" x="268.457031"/>
     </g>
    </g>
    <g id="PathCollection_14">
     <g>
      <use xlink:href="#m950e853be7" x="711.590511" y="50.969687" style="fill: #0000ff; fill-opacity: 0.7; stroke: #0000ff; stroke-opacity: 0.7"/>
     </g>
    </g>
    <g id="text_30">
     <!-- Weather -->
     <g transform="translate(729.590511 53.594687) scale(0.1 -0.1)">
      <use xlink:href="#DejaVuSans-57"/>
      <use xlink:href="#DejaVuSans-65" x="93.001953"/>
      <use xlink:href="#DejaVuSans-61" x="154.525391"/>
      <use xlink:href="#DejaVuSans-74" x="215.804688"/>
      <use xlink:href="#DejaVuSans-68" x="255.013672"/>
      <use xlink:href="#DejaVuSans-65" x="318.392578"/>
      <use xlink:href="#DejaVuSans-72" x="379.916016"/>
     </g>
    </g>
    <g id="PathCollection_15">
     <g>
      <use xlink:href="#m5ec147827e" x="711.590511" y="65.647812" style="fill: #008000; fill-opacity: 0.7; stroke: #008000; stroke-opacity: 0.7"/>
     </g>
    </g>
    <g id="text_31">
     <!-- Food -->
     <g transform="translate(729.590511 68.272812) scale(0.1 -0.1)">
      <use xlink:href="#DejaVuSans-46"/>
      <use xlink:href="#DejaVuSans-6f" x="53.894531"/>
      <use xlink:href="#DejaVuSans-6f" x="115.076172"/>
      <use xlink:href="#DejaVuSans-64" x="176.257812"/>
     </g>
    </g>
   </g>
  </g>
 </g>
 <defs>
  <clipPath id="p074a335015">
   <rect x="111.093636" y="22.318125" width="669.6" height="443.52"/>
  </clipPath>
 </defs>
</svg>
